<?xml version="1.0" standalone="no"?>
<!DOCTYPE svg PUBLIC "-//W3C//DTD SVG 20010904//EN"
 "http://www.w3.org/TR/2001/REC-SVG-20010904/DTD/svg10.dtd">
<svg version="1.0" xmlns="http://www.w3.org/2000/svg"
 width="1120.000000pt" height="1120.000000pt" viewBox="0 0 1120.000000 1120.000000"
 preserveAspectRatio="xMidYMid meet">

<g transform="translate(0.000000,1120.000000) scale(0.100000,-0.100000)"
fill="#000000" stroke="none">
<path d="M5570 9960 c-18 -12 -2 -12 25 0 13 6 15 9 5 9 -8 0 -22 -4 -30 -9z"/>
<path d="M5750 9960 c8 -5 20 -10 25 -10 6 0 3 5 -5 10 -8 5 -19 10 -25 10 -5
0 -3 -5 5 -10z"/>
<path d="M6105 9787 c423 -216 663 -357 970 -570 151 -104 400 -290 528 -392
31 -26 57 -44 57 -42 0 9 -267 218 -430 336 -241 176 -553 375 -775 496 -38
21 -101 56 -140 78 -91 51 -487 247 -500 247 -5 0 125 -69 290 -153z"/>
<path d="M5370 9890 c-18 -12 -2 -12 25 0 13 6 15 9 5 9 -8 0 -22 -4 -30 -9z"/>
<path d="M5265 9849 c-22 -10 -29 -16 -15 -13 28 7 80 33 65 33 -5 0 -28 -9
-50 -20z"/>
<path d="M5190 9820 c-8 -5 -10 -10 -5 -10 6 0 17 5 25 10 8 5 11 10 5 10 -5
0 -17 -5 -25 -10z"/>
<path d="M4953 9720 c-34 -14 -28 -21 7 -9 17 6 30 13 30 15 0 6 -12 4 -37 -6z"/>
<path d="M5560 9655 c-788 -270 -1561 -723 -2215 -1295 -246 -216 -592 -569
-566 -578 7 -2 18 2 27 9 10 8 18 9 25 2 8 -8 -6 -33 -45 -84 -31 -41 -72
-105 -91 -144 -65 -132 -66 -140 -76 -690 -15 -850 -27 -2447 -19 -2510 8 -67
48 -173 93 -250 123 -208 601 -632 1064 -942 563 -376 1239 -710 1871 -924
132 -44 104 -49 345 60 715 324 1418 745 1937 1162 164 132 428 375 509 467
48 56 55 61 66 45 11 -15 18 -12 64 37 104 108 165 227 183 354 16 113 -23
2770 -42 2861 -23 113 -73 229 -138 320 -125 176 -447 519 -717 765 -411 373
-943 753 -1455 1039 -187 105 -661 341 -682 340 -7 0 -69 -20 -138 -44z m17
-467 c14 -18 49 -127 72 -228 46 -194 88 -538 98 -788 l6 -173 -49 -47 c-39
-37 -82 -61 -204 -116 -85 -38 -227 -106 -315 -152 -87 -46 -169 -84 -180 -84
-12 0 -42 -13 -67 -29 -25 -16 -56 -34 -69 -40 -22 -11 -21 -10 3 9 14 11 37
30 50 41 l23 20 -30 -17 c-106 -62 -645 -430 -718 -490 -10 -8 -23 -14 -29
-12 -14 5 246 197 514 379 125 85 278 189 340 232 100 69 386 220 565 300 l62
28 -4 62 c-3 34 -10 171 -15 305 -10 239 -16 304 -45 492 -8 52 -17 124 -19
160 -3 36 -8 86 -12 113 -7 47 3 61 23 35z m-237 -59 c0 -36 -3 -41 -32 -51
-215 -75 -558 -325 -943 -686 -38 -36 -89 -84 -113 -106 l-43 -41 50 108 c55
117 128 236 206 332 72 90 74 95 16 40 -77 -72 -44 -19 38 63 158 156 357 269
581 331 173 47 177 48 213 50 25 1 27 -2 27 -40z m537 16 c16 -11 25 -36 37
-102 17 -98 76 -597 101 -858 23 -240 26 -252 88 -312 29 -28 133 -115 232
-193 205 -164 326 -263 439 -365 110 -97 378 -385 426 -457 39 -59 52 -104 28
-95 -7 2 -12 12 -10 22 2 12 -1 16 -11 12 -9 -3 -40 21 -83 66 -73 75 -53 65
29 -14 139 -137 -46 83 -228 270 -120 124 -204 196 -265 230 -21 11 -19 7 10
-25 l35 -38 -42 33 c-23 17 -56 50 -74 72 -37 47 -142 136 -324 274 -125 96
-282 227 -297 249 -11 16 -10 28 2 21 13 -8 13 28 0 130 -5 44 -21 206 -35
360 -22 244 -55 495 -86 659 -15 82 -12 89 28 61z m308 -82 c228 -79 406 -187
573 -347 171 -165 311 -356 418 -568 49 -98 104 -239 104 -268 0 -24 -22 5
-59 78 -138 273 -354 526 -647 759 -152 121 -262 197 -410 284 -55 33 -111 71
-124 84 l-24 25 35 -6 c19 -4 79 -22 134 -41z m-777 -75 c53 -173 120 -799 93
-870 -8 -21 -44 -43 -173 -109 -148 -74 -370 -203 -597 -346 -83 -52 -103 -61
-99 -45 3 13 -14 96 -24 116 -8 14 -7 17 3 11 8 -5 10 -4 5 4 -7 11 -16 74
-17 113 0 10 -5 20 -10 24 -6 4 -5 11 2 21 10 11 10 16 0 23 -9 5 -10 10 -2
14 6 4 7 15 1 30 -8 23 -26 164 -22 179 1 4 -2 7 -8 7 -5 0 -9 15 -8 33 1 18
-4 41 -9 52 -6 11 -11 25 -12 30 0 6 -7 18 -15 27 -8 9 -12 27 -9 40 11 44
-260 -238 -355 -371 -18 -24 -32 -37 -32 -29 0 27 97 154 214 280 190 205 341
347 510 477 58 45 105 85 103 90 -1 4 24 32 57 61 65 61 172 129 220 140 17 4
40 11 50 16 14 5 17 4 12 -4 -10 -16 5 -15 45 3 52 22 66 19 77 -17z m790 -91
c346 -228 626 -484 841 -771 117 -155 237 -354 267 -441 27 -76 28 -90 29
-260 0 -204 -11 -430 -23 -451 -5 -10 -23 6 -62 58 -141 184 -439 463 -934
872 -63 52 -113 101 -121 120 -8 17 -23 123 -35 236 -42 405 -89 688 -121 726
-23 27 4 12 159 -89z m-2378 -621 l0 -74 -44 -26 c-75 -44 -336 -258 -566
-465 -58 -52 -123 -110 -145 -130 -22 -20 0 5 48 55 48 50 87 95 87 100 -1 5
-9 -1 -19 -13 -19 -23 -38 -32 -26 -13 16 26 -14 3 -82 -62 -42 -40 -70 -62
-63 -48 28 52 557 563 740 713 65 53 70 50 70 -37z m4287 -241 c73 -71 133
-133 133 -137 0 -5 -14 7 -31 26 -17 20 -36 34 -42 33 -7 -1 -11 4 -9 11 1 8
-3 12 -10 10 -7 -3 -20 3 -29 13 -9 10 -26 20 -37 22 -12 2 -25 7 -29 12 -5 4
-2 5 5 1 7 -4 12 -1 12 8 0 9 -7 13 -20 11 -19 -4 -34 9 -35 30 -1 6 -6 9 -12
8 -6 -1 -17 5 -25 14 -9 12 -9 15 0 9 26 -15 10 11 -28 49 -22 21 -37 41 -35
44 3 2 -11 19 -30 37 -19 17 -35 35 -35 40 0 9 42 -31 257 -241z m-2159 115
c0 -32 -1 -33 -8 -10 -4 14 -8 43 -8 65 0 38 1 39 8 10 4 -16 8 -46 8 -65z
m1850 -182 c366 -371 612 -668 554 -668 -5 0 -35 30 -68 67 -75 86 -226 245
-471 496 -106 109 -199 210 -207 225 -19 38 -28 82 -17 82 5 0 99 -91 209
-202z m153 165 c13 -16 12 -17 -3 -4 -10 7 -18 15 -18 17 0 8 8 3 21 -13z
m-4133 -78 c2 -16 1 -48 -3 -71 -5 -38 -11 -46 -53 -70 -66 -38 -413 -279
-557 -387 l-120 -90 85 83 c69 67 78 78 45 59 -48 -28 -128 -83 -215 -149 -35
-27 -67 -46 -70 -43 -3 3 1 8 8 10 8 3 45 31 82 62 38 31 148 121 246 201 97
80 243 199 323 265 229 189 223 185 229 130z m4550 -866 c2 -11 0 -19 -3 -19
-4 0 -75 64 -159 143 -83 78 -251 229 -373 335 l-221 194 -7 69 c-4 38 -11 69
-16 69 -5 0 -9 5 -9 11 0 17 785 -781 788 -802z m-257 784 c13 -16 12 -17 -3
-4 -10 7 -18 15 -18 17 0 8 8 3 21 -13z m159 -108 c14 -18 13 -19 -1 -8 -9 7
-19 10 -23 6 -4 -4 -4 1 0 10 3 10 7 17 8 15 1 -2 8 -12 16 -23z m-4456 -31
c3 -9 6 -47 6 -85 l0 -69 -54 -24 c-58 -26 -159 -84 -356 -205 -205 -126 -280
-171 -293 -174 -7 -1 -16 -6 -20 -12 -4 -5 -5 4 -1 20 3 17 13 36 22 43 39 31
-8 7 -85 -44 -47 -30 -87 -53 -89 -51 -10 9 832 614 857 616 4 1 10 -6 13 -15z
m4485 -15 c-12 -7 -11 -9 0 -9 25 0 227 -233 261 -300 19 -37 19 -40 3 -40
-10 1 -45 36 -80 83 -81 106 -168 215 -199 250 -16 16 -19 25 -10 21 9 -3 16
-1 16 6 0 6 5 8 11 4 8 -4 7 -9 -2 -15z m-2527 -133 c71 -61 76 -67 86 -123
21 -108 42 -375 42 -537 0 -172 -11 -244 -56 -379 -28 -85 -43 -102 -19 -22
22 73 17 87 -10 28 -26 -56 -49 -80 -40 -41 2 12 9 43 15 68 18 79 23 300 11
465 -14 197 -40 404 -52 427 -5 10 -23 25 -39 33 -27 14 -33 13 -79 -4 -116
-46 -395 -177 -504 -238 -114 -62 -277 -146 -287 -148 -3 0 -21 -9 -40 -19
l-35 -17 24 19 c25 20 35 58 19 68 -7 5 -71 -27 -178 -89 -49 -28 -27 -8 50
45 110 77 311 184 642 344 174 83 327 159 340 168 12 9 25 16 29 16 3 0 40
-29 81 -64z m2033 -98 c89 -74 241 -202 338 -285 98 -84 191 -163 208 -176 28
-21 30 -28 27 -75 l-3 -51 -176 137 c-96 75 -227 173 -290 216 -63 44 -153
108 -201 143 l-86 64 -7 77 c-3 42 -10 85 -16 95 -19 35 41 -8 206 -145z
m-3718 110 c-3 -7 -5 -2 -5 12 0 14 2 19 5 13 2 -7 2 -19 0 -25z m-937 -1 c0
-1 -24 -25 -52 -52 l-53 -50 50 53 c46 48 55 57 55 49z m2961 -153 c13 -15
121 -104 239 -199 118 -94 278 -228 355 -297 222 -198 454 -451 441 -483 -8
-22 -26 -18 -26 6 0 21 -1 21 -23 -3 l-23 -25 -320 314 c-200 197 -378 362
-478 443 -88 71 -162 127 -165 125 -2 -3 -4 -101 -2 -218 3 -354 -18 -491
-104 -672 -37 -77 -42 -84 -39 -52 2 21 11 54 20 75 55 129 77 425 55 747 -12
179 -20 230 -38 230 -28 0 -22 15 8 24 55 15 74 12 100 -15z m-475 -104 c7
-36 12 -88 13 -115 l1 -51 -72 -37 c-40 -20 -178 -91 -307 -157 -129 -66 -241
-120 -248 -120 -7 0 -13 5 -13 10 0 6 -5 10 -12 10 -12 0 -78 67 -78 80 0 4
-14 19 -30 33 l-30 27 -60 -30 c-99 -50 -321 -179 -389 -227 -37 -26 -67 -41
-73 -35 -15 15 251 184 528 336 153 83 521 263 634 310 116 48 122 46 136 -34z
m371 -12 c-3 -8 -6 -5 -6 6 -1 11 2 17 5 13 3 -3 4 -12 1 -19z m10 -100 c-2
-13 -4 -5 -4 17 -1 22 1 32 4 23 2 -10 2 -28 0 -40z m-266 -94 c22 -100 26
-360 9 -474 -14 -86 -51 -210 -63 -210 -5 0 -7 6 -4 14 4 10 0 14 -11 12 -18
-4 -116 24 -128 37 -4 4 -15 7 -24 7 -9 0 -39 11 -66 25 -27 14 -54 25 -60 25
-6 0 -23 11 -38 25 -15 14 -30 25 -33 25 -3 0 -38 33 -77 74 l-71 74 -30 -15
c-16 -8 -142 -77 -280 -154 -262 -145 -293 -160 -281 -141 15 25 832 495 1057
608 51 25 88 49 82 52 -5 4 -11 32 -12 62 -4 75 7 59 30 -46z m-1941 19 l0
-68 -196 -105 c-108 -58 -210 -112 -228 -120 -17 -8 -120 -61 -229 -118 -110
-57 -200 -102 -202 -100 -1 2 -7 21 -12 43 -7 30 -13 39 -27 37 -39 -7 0 19
122 84 70 37 186 101 257 142 205 119 489 272 503 272 8 0 12 -20 12 -67z
m2558 -100 c308 -260 715 -644 690 -652 -7 -2 -22 -11 -33 -20 -20 -16 -20
-16 -1 7 11 12 16 25 11 30 -4 4 -10 1 -12 -6 -7 -17 -163 -152 -177 -152 -6
1 -43 31 -82 68 -94 89 -296 267 -393 346 -20 16 -60 52 -88 80 l-53 50 0 116
c0 63 -5 122 -10 130 -5 8 -10 11 -11 5 -3 -24 -17 44 -18 86 -1 25 -7 51 -13
58 -9 10 -9 12 -1 10 6 -2 92 -72 191 -156z m-2244 87 c-6 -6 -10 -3 -10 10 0
13 4 16 10 10 7 -7 7 -13 0 -20z m1903 -72 c-2 -18 -4 -4 -4 32 0 36 2 50 4
33 2 -18 2 -48 0 -65z m1858 -129 c346 -230 411 -272 453 -293 17 -9 32 -23
32 -31 0 -8 8 -19 19 -24 10 -6 21 -25 24 -43 3 -18 10 -53 16 -78 28 -117 32
-873 6 -1195 -3 -33 -7 -109 -10 -170 -6 -140 -24 -320 -35 -365 -5 -19 -11
-47 -14 -61 -6 -27 -41 -45 -52 -28 -3 6 -11 8 -17 6 -7 -2 -22 0 -35 4 -12 5
-35 11 -50 14 -15 2 -28 9 -30 15 -2 5 -15 10 -28 10 -16 0 -30 10 -43 30 -10
16 -21 27 -24 24 -4 -4 -9 1 -13 10 -3 9 -13 16 -20 16 -8 0 -19 11 -24 25 -5
14 -14 25 -20 25 -5 0 -10 6 -10 13 0 16 -44 57 -61 57 -11 0 -11 2 -1 8 7 5
10 16 6 25 -3 9 -10 15 -14 12 -13 -8 -32 23 -26 42 3 10 8 31 10 48 3 16 12
35 21 41 8 6 15 15 15 19 0 4 12 19 28 34 15 15 36 38 47 51 21 26 65 131 65
156 0 8 51 65 113 126 61 61 84 86 51 56 -34 -30 -82 -71 -106 -91 l-45 -37
-120 0 c-96 0 -122 -3 -126 -14 -3 -8 -18 -81 -32 -163 -22 -127 -63 -336 -80
-410 -5 -22 -10 -23 -110 -23 -99 0 -105 1 -105 20 0 12 23 143 50 292 28 149
49 277 46 285 -4 10 -40 13 -152 13 l-146 0 8 58 c5 31 8 74 9 95 l0 37 340 2
c260 1 313 3 225 9 -63 4 -122 8 -131 9 -12 1 -15 8 -12 21 3 11 11 18 19 15
7 -3 22 4 35 15 25 22 22 20 69 24 19 2 46 6 60 9 34 8 121 19 145 18 11 0 40
9 65 21 50 24 80 67 87 125 3 20 7 39 9 41 2 2 27 -1 55 -6 l51 -11 -6 30 c-3
18 -2 27 4 23 6 -3 10 -1 10 5 0 6 -11 15 -25 20 -24 9 -637 162 -702 175 -30
6 -33 10 -33 42 l0 36 43 -7 c66 -11 428 -93 572 -130 116 -30 131 -32 137
-17 13 30 8 39 -29 54 -42 18 -30 23 13 7 15 -6 29 -9 31 -7 4 5 -256 89 -332
108 -27 7 -52 15 -55 19 -6 8 -156 51 -282 80 -66 15 -98 27 -98 36 0 9 11 14
30 14 41 0 432 -101 588 -151 100 -33 126 -38 133 -27 13 20 11 36 -8 47 -16
9 -15 10 7 11 19 0 21 3 10 9 -49 29 -399 139 -667 211 l-83 22 0 158 c0 86
-3 178 -6 204 l-7 46 147 -92 c80 -51 237 -150 349 -221 111 -70 212 -134 224
-143 20 -14 22 -14 34 7 9 18 9 24 0 27 -7 2 -24 15 -39 28 l-27 25 38 -15
c20 -8 37 -12 37 -8 0 10 -388 267 -597 397 l-173 106 0 49 c0 27 -4 52 -10
55 -12 7 -14 28 -2 23 4 -1 133 -87 287 -189z m-4080 -175 c0 -168 -3 -218
-12 -217 -17 4 -183 -28 -431 -83 -112 -24 -207 -42 -212 -39 -4 3 -6 14 -3
25 3 12 -1 22 -11 26 -9 3 -16 17 -16 29 0 13 -5 27 -10 30 -8 5 -7 12 2 22
14 17 -54 -15 -141 -66 -30 -18 -51 -25 -51 -18 1 12 197 134 465 288 83 47
206 118 275 158 68 39 129 70 135 68 6 -2 10 -79 10 -223z m4073 43 c50 -32
92 -61 92 -64 0 -3 -11 2 -24 10 -13 9 -60 39 -105 68 -45 28 -81 53 -81 56 0
5 6 2 118 -70z m187 -122 l20 -16 -20 10 c-11 5 -29 17 -40 26 l-20 16 20 -10
c11 -5 29 -17 40 -26z m-1705 -160 c127 -112 350 -313 384 -346 19 -18 19 -18
0 -17 -10 1 -42 -13 -71 -30 -29 -17 -53 -26 -55 -20 -2 6 -28 12 -58 14 -86
5 -113 11 -122 29 -5 8 -14 13 -19 9 -5 -3 -27 4 -49 15 -33 17 -64 26 -103
30 -5 1 -5 6 -2 11 6 9 -17 15 -40 10 -5 -1 -7 1 -3 5 10 10 -14 33 -29 28 -6
-2 -14 5 -18 16 -3 12 -15 21 -26 21 -10 0 -19 2 -19 4 0 2 15 60 34 127 49
182 58 267 14 136 -10 -30 -14 -37 -10 -17 4 19 7 58 7 86 l0 51 31 -26 c17
-14 86 -75 154 -136z m-2570 -109 l0 -43 -62 -13 c-35 -6 -166 -36 -293 -65
-126 -29 -261 -55 -300 -58 l-70 -6 40 19 c48 23 41 24 -45 5 -36 -8 -78 -14
-95 -14 l-30 0 25 10 c30 12 778 201 823 208 4 0 7 -19 7 -43z m1975 -103
c-19 -45 -25 -52 -25 -29 0 13 -42 -5 -182 -78 -101 -51 -228 -113 -283 -137
-117 -50 -113 -47 -95 -60 12 -9 11 -9 -5 -4 -11 4 -28 9 -37 12 -11 3 73 49
215 117 128 62 273 136 322 164 50 28 93 52 98 52 4 0 0 -17 -8 -37z m-1975
-83 c0 -43 -3 -50 -20 -50 -31 0 -418 -85 -630 -139 -107 -27 -198 -48 -201
-45 -4 2 -5 13 -2 24 3 13 -1 26 -11 33 -14 10 7 19 126 52 174 48 684 173
716 174 20 1 22 -4 22 -49z m2216 -87 c-1 -11 46 -51 131 -112 125 -91 155
-118 116 -104 -31 11 -263 176 -263 187 -1 6 -12 -2 -26 -19 -30 -35 -22 -15
13 33 27 37 31 39 29 15z m-1395 -577 c102 -7 204 -71 240 -151 59 -130 -22
-320 -167 -391 -55 -27 -59 -27 -300 -32 -213 -4 -246 -7 -254 -21 -4 -9 -20
-72 -35 -141 -26 -123 -34 -146 -42 -122 -3 8 -33 12 -99 12 -79 0 -94 2 -94
16 0 9 16 102 36 206 20 105 34 203 32 219 l-5 29 301 0 c176 0 316 4 338 10
78 22 104 106 47 154 l-31 26 -601 -1 c-331 0 -632 -3 -669 -8 -49 -5 -74 -13
-92 -30 -32 -30 -38 -66 -16 -94 17 -21 26 -22 196 -24 174 -2 179 -2 233 -30
36 -18 66 -43 86 -72 26 -38 30 -51 29 -109 -1 -118 -74 -225 -192 -280 l-57
-27 -329 -3 -329 -3 8 53 c5 29 9 76 11 103 l2 50 284 2 c155 2 298 5 316 8
65 12 94 72 51 111 -19 17 -43 20 -213 24 -172 5 -195 8 -233 28 -111 58 -140
191 -72 323 11 23 15 38 9 34 -9 -6 -9 -2 -1 13 24 45 146 109 229 121 54 8
1262 5 1383 -3z m1311 -14 c76 -31 149 -98 179 -164 18 -42 23 -70 23 -138 0
-213 -107 -401 -271 -478 -57 -26 -63 -27 -293 -32 -382 -8 -440 1 -518 79
-104 104 -119 310 -37 513 13 32 19 56 13 52 -7 -4 -6 0 1 14 17 32 108 109
157 132 93 45 124 49 414 47 261 -2 278 -3 332 -25z m1150 5 c52 -24 108 -76
124 -114 8 -18 14 -61 14 -96 0 -164 -83 -277 -237 -324 l-62 -18 94 -115 c52
-63 95 -117 95 -120 0 -3 -62 -4 -137 -2 -108 3 -140 7 -146 18 -5 8 -48 68
-97 133 -49 65 -114 157 -144 205 l-56 86 175 0 c135 0 184 4 212 15 56 24 73
43 73 84 0 75 -18 81 -254 81 l-195 0 -10 -37 c-19 -69 -73 -335 -95 -461
l-22 -124 -112 -3 c-62 -2 -112 -1 -112 2 0 3 11 62 25 131 42 218 115 632
115 654 0 14 -5 18 -15 14 -8 -3 -15 -1 -15 5 0 7 123 9 373 7 327 -3 376 -5
409 -21z m1173 -1171 c37 -16 44 -36 20 -56 -12 -10 -21 -10 -41 -1 -62 28
-128 -8 -128 -71 0 -68 49 -109 110 -94 24 6 26 11 21 41 -3 19 -2 35 2 35 5
0 23 3 40 6 l31 7 0 -57 c0 -56 -1 -57 -35 -72 -115 -48 -225 20 -225 139 0
54 17 86 59 114 40 27 95 30 146 9z m-1043 -62 l-2 -59 58 63 c52 56 62 62 97
62 33 -1 37 -3 25 -13 -29 -24 -100 -110 -100 -122 0 -7 23 -43 50 -81 28 -38
50 -72 50 -76 0 -17 -37 -6 -66 20 -99 88 -94 85 -109 65 -8 -10 -15 -32 -15
-50 0 -32 -20 -57 -28 -35 -2 7 -8 10 -12 7 -5 -3 -10 57 -12 134 -3 134 -2
140 17 144 45 7 49 3 47 -59z m336 -81 l-3 -148 -27 -1 c-22 -1 -27 4 -32 30
-4 24 -9 223 -7 259 1 4 17 7 36 7 l36 0 -3 -147z m239 72 c88 -114 85 -114
81 -12 l-3 87 35 0 35 0 -3 -145 -3 -145 -24 0 c-18 0 -36 17 -71 63 -26 34
-58 74 -70 89 l-23 28 -7 -91 c-6 -84 -8 -90 -28 -87 -20 3 -21 10 -26 133 -3
72 -9 136 -14 143 -6 10 0 13 30 10 34 -3 44 -11 91 -73z m-809 33 c118 -73
55 -268 -87 -268 -108 0 -179 100 -145 202 17 53 29 65 81 84 47 17 106 10
151 -18z m-433 8 c87 -37 106 -173 33 -243 -26 -25 -37 -28 -93 -28 -69 0 -99
15 -139 68 -26 35 -31 122 -10 155 38 57 133 79 209 48z m-890 -10 c40 -17 41
-20 16 -51 -12 -16 -21 -21 -28 -14 -20 20 -79 27 -111 13 -44 -18 -66 -56
-57 -100 10 -55 45 -84 100 -84 l45 0 0 39 c0 43 1 45 43 55 l27 6 0 -65 c0
-36 -2 -65 -4 -65 -2 0 -12 -3 -22 -7 -12 -4 -15 -3 -10 5 5 9 0 9 -19 2 -62
-24 -127 -7 -175 45 -20 21 -25 37 -25 78 0 29 4 63 9 76 6 18 5 22 -4 16 -8
-5 -11 -3 -8 6 2 8 24 24 48 37 52 26 124 29 175 8z m519 -11 c29 -27 32 -48
12 -86 -11 -22 -11 -28 5 -48 23 -28 24 -53 4 -91 -16 -31 -38 -42 -70 -35
-11 2 -55 4 -97 4 l-77 1 -3 140 -3 140 101 0 c93 0 103 -2 128 -25z m-1050
-63 c35 -42 73 -86 85 -96 l21 -19 0 96 0 97 30 0 30 0 0 -155 c0 -85 -3 -155
-7 -155 -14 0 -30 15 -42 38 -7 12 -16 20 -20 18 -4 -3 -25 13 -46 34 -22 22
-36 40 -33 40 4 0 21 -15 37 -32 17 -18 31 -28 31 -23 0 14 -81 107 -88 101
-2 -3 1 -14 9 -23 11 -14 8 -14 -10 2 -23 19 -24 19 -17 1 5 -15 4 -17 -7 -7
-12 9 -16 -2 -21 -69 -8 -91 -29 -109 -42 -37 l-8 42 -6 -45 c-4 -28 -8 14
-11 111 l-4 156 27 1 c22 1 40 -14 92 -76z m-535 1 c-38 -36 -69 -70 -69 -75
0 -10 104 -143 120 -153 15 -9 12 -25 -5 -25 -21 0 -71 46 -107 97 l-29 43
-25 -25 c-14 -14 -29 -25 -34 -25 -6 0 -10 -18 -10 -40 0 -32 -4 -40 -19 -40
-14 0 -20 10 -25 38 -8 53 -7 74 4 67 12 -8 5 131 -8 148 -5 7 -12 20 -15 30
-5 14 0 17 31 17 l37 0 -3 -64 c-4 -69 10 -88 45 -60 17 14 16 14 -4 4 -38
-18 -26 1 39 67 57 57 66 63 104 63 l42 0 -69 -67z m261 -88 c0 -145 -1 -155
-19 -155 -16 0 -20 11 -25 83 -4 45 -6 108 -5 140 2 47 -1 60 -17 72 -18 13
-16 14 24 15 l42 0 0 -155z m-1162 108 c49 -37 67 -71 67 -127 -1 -56 -30
-117 -65 -136 -23 -12 -22 10 2 37 55 64 50 141 -15 201 -40 38 -148 44 -117
7 10 -12 9 -15 -7 -15 -27 0 -69 -44 -76 -77 -15 -77 47 -138 131 -129 53 6
54 0 1 -14 -47 -13 -96 -1 -124 30 -10 11 -21 17 -26 14 -4 -2 -13 14 -19 37
-11 41 -7 61 28 141 2 5 -5 5 -15 1 -16 -6 -16 -5 -4 11 45 55 176 66 239 19z
m449 17 c55 -24 83 -70 83 -133 0 -55 -18 -96 -56 -126 -42 -33 -48 -13 -9 32
29 34 35 48 35 86 0 81 -52 134 -131 135 -39 1 -53 -4 -71 -23 -13 -13 -17
-20 -9 -16 10 6 8 -3 -6 -26 -50 -81 -21 -158 66 -176 l36 -7 -40 -6 c-50 -7
-90 11 -110 50 -19 38 -19 119 0 147 9 12 14 28 13 35 -4 19 62 48 112 48 25
0 64 -9 87 -20z m-935 -10 c59 -17 86 -77 58 -131 -8 -15 -7 -23 5 -35 24 -25
19 -86 -9 -113 -14 -13 -30 -20 -36 -16 -8 5 -6 11 5 19 19 14 28 94 12 114
-7 9 -25 11 -56 8 -33 -4 -39 -3 -21 3 18 6 7 8 -42 7 -74 -1 -90 -16 -35 -34
32 -10 32 -10 5 -11 -24 -1 -28 -5 -28 -31 l0 -31 73 3 c70 3 72 4 75 30 3 25
0 27 -40 31 -40 4 -39 4 7 3 42 -1 50 -4 53 -21 6 -41 -19 -56 -101 -62 -74
-6 -78 -5 -84 16 -3 11 -9 21 -13 21 -4 0 -4 20 0 45 5 34 4 45 -7 45 -9 0
-13 17 -13 65 0 55 -3 65 -17 66 -12 1 -10 4 7 9 37 12 159 11 202 0z m913
-36 c18 -8 36 -22 39 -30 6 -16 -6 -12 -34 11 -8 7 -28 17 -45 23 -19 7 -23
11 -12 11 11 1 34 -6 52 -15z m-465 -14 c0 -5 -2 -10 -4 -10 -3 0 -8 5 -11 10
-3 6 -1 10 4 10 6 0 11 -4 11 -10z m3480 -651 l0 -189 -34 0 c-32 0 -34 2 -40
46 -3 26 -6 70 -6 98 l-1 51 -34 -55 c-49 -79 -65 -100 -75 -100 -5 0 -33 32
-62 70 l-53 71 -3 -101 -3 -100 -39 0 -39 0 -3 194 -3 194 28 5 c31 4 23 14
117 -141 25 -39 49 -71 54 -69 5 2 37 51 70 110 49 85 66 107 86 109 14 2 28
2 33 0 4 -2 7 -88 7 -193z m436 179 c13 -12 13 -20 2 -44 -16 -39 -16 -38 -32
-25 -8 7 -39 15 -69 18 -50 5 -56 3 -67 -17 -16 -30 -1 -43 75 -65 68 -19 101
-45 110 -85 8 -36 -16 -94 -49 -115 -29 -19 -90 -28 -115 -16 -88 42 -96 48
-99 69 -4 26 0 27 39 6 19 -9 49 -14 82 -12 48 3 52 5 55 29 3 25 -3 29 -68
54 -83 32 -102 54 -104 127 -1 48 1 53 34 76 31 21 43 23 113 20 51 -3 83 -10
93 -20z m-1012 -143 c0 -129 -1 -143 -24 -182 -29 -53 -101 -93 -131 -75 -10
7 -31 12 -46 12 -16 0 -42 9 -60 20 -57 34 -63 54 -71 214 l-7 146 43 0 42 0
0 -148 c0 -135 2 -151 19 -166 26 -24 87 -23 120 2 26 19 26 21 28 163 1 79 2
148 3 152 0 5 19 7 42 5 l42 -3 0 -140z m-556 -72 l-3 -198 -29 -3 c-16 -2
-32 2 -37 10 -5 7 -9 95 -9 195 0 136 -3 183 -12 186 -7 3 11 6 40 6 l52 1 -2
-197z m-366 155 c107 -58 117 -217 20 -314 -31 -32 -85 -57 -62 -29 16 20 -9
25 -90 18 -46 -4 -84 -1 -110 7 l-39 13 -3 163 -3 163 25 5 c14 2 69 3 122 1
79 -2 105 -7 140 -27z m-625 0 c6 -7 24 -47 41 -88 17 -41 51 -122 77 -179 25
-57 44 -105 42 -107 -9 -9 -33 8 -52 36 -11 17 -25 28 -32 26 -6 -3 -16 8 -22
25 -8 25 -15 29 -48 30 -66 3 -118 -3 -130 -13 -10 -8 -13 -3 -13 18 -1 29 -1
29 -25 -11 -41 -66 -28 -28 40 115 57 121 62 136 47 148 -13 10 -10 12 25 12
22 0 45 -6 50 -12z m-347 -40 l0 -43 -59 3 -58 4 -8 -166 c-6 -150 -9 -166
-25 -166 -14 0 -19 12 -25 67 -4 37 -11 76 -16 87 -9 20 -9 20 -5 -1 2 -13 0
-26 -5 -29 -5 -3 -9 38 -9 97 0 83 3 104 17 114 9 7 14 19 10 29 -5 13 -21 16
-82 16 -41 0 -75 4 -75 10 0 9 66 14 253 18 l87 2 0 -42z m-540 13 c30 -8 37
-39 15 -66 -16 -19 -16 -19 -10 9 5 24 3 27 -11 22 -9 -3 -23 -1 -32 6 -8 7
-17 12 -19 10 -2 -2 -16 -1 -32 3 -39 8 -107 -11 -124 -36 -12 -16 -16 -17
-20 -5 -6 14 12 34 48 54 22 12 145 14 185 3z m-173 -95 c-10 -24 16 -42 86
-61 78 -20 114 -45 133 -92 12 -28 12 -38 0 -67 -8 -19 -25 -40 -38 -47 l-23
-12 21 24 c57 63 37 111 -62 145 -38 13 -76 27 -84 31 -8 4 -22 7 -30 7 -8 1
-15 6 -15 13 0 6 -3 15 -7 19 -12 12 -9 42 5 47 19 8 19 8 14 -7z m46 -232
c36 -5 53 -2 74 11 l28 18 -19 -21 c-15 -17 -30 -22 -68 -22 -51 0 -118 22
-118 39 0 5 13 3 29 -5 15 -8 49 -17 74 -20z m2527 -369 c33 -36 32 -87 -2
-122 -21 -20 -39 -27 -82 -31 l-56 -4 -2 -37 c-1 -21 -4 -10 -7 29 l-7 65 -11
-35 c-10 -32 -11 -28 -12 49 -1 67 -4 86 -18 97 -15 11 -4 13 78 14 89 0 97
-2 119 -25z m-447 -15 c34 -27 43 -70 23 -109 -22 -41 -41 -49 -108 -44 -55 5
-58 7 -58 32 0 18 -3 22 -9 12 -6 -8 -11 7 -16 45 -4 33 -12 65 -17 72 -8 9 8
12 74 12 70 0 90 -4 111 -20z m-494 -42 c11 -24 35 -78 55 -120 48 -105 27
-111 -24 -7 -40 83 -65 119 -83 119 -6 0 -8 -3 -4 -6 3 -4 0 -18 -7 -33 -7
-14 -17 -36 -20 -48 -7 -22 -4 -23 38 -23 25 0 46 -4 46 -10 0 -5 -22 -10 -49
-10 -65 0 -71 18 -34 96 20 41 24 58 16 61 -24 9 -13 23 17 23 26 0 33 -6 49
-42z m-419 -85 c28 -65 54 -124 57 -130 3 -7 -1 -13 -8 -13 -8 0 -36 46 -64
101 -27 56 -60 111 -72 123 -30 28 -29 36 6 36 27 0 32 -7 81 -117z m-110 11
c-26 -59 -25 -64 8 -64 21 0 24 -2 12 -10 -49 -32 -63 4 -30 78 26 57 34 54
10 -4z"/>
<path d="M5125 9087 c-38 -13 -53 -23 -41 -25 20 -4 102 24 111 39 8 12 -1 11
-70 -14z"/>
<path d="M8084 8028 c-4 -7 -3 -10 1 -5 5 4 20 -3 34 -15 l26 -23 -24 28 c-28
31 -28 31 -37 15z"/>
<path d="M3170 6380 c-20 -6 -21 -8 -5 -8 11 0 29 3 40 8 25 11 -1 11 -35 0z"/>
<path d="M5330 5467 c-51 -27 -104 -90 -121 -145 -6 -20 -13 -73 -16 -117 -4
-69 -1 -85 16 -113 12 -18 33 -37 47 -42 14 -6 112 -10 218 -10 269 0 319 18
377 136 27 54 33 81 37 149 l4 83 -35 38 -35 39 -224 3 c-218 3 -224 3 -268
-21z"/>
<path d="M6833 4410 c-26 -11 -53 -59 -53 -95 0 -16 12 -38 29 -56 38 -38 91
-40 126 -4 34 33 35 102 2 133 -27 25 -73 35 -104 22z"/>
<path d="M6438 4423 c6 -2 18 -2 25 0 6 3 1 5 -13 5 -14 0 -19 -2 -12 -5z"/>
<path d="M6396 4391 c-29 -32 -36 -76 -18 -113 43 -86 153 -63 169 35 5 31 1
40 -25 67 -37 36 -98 42 -126 11z"/>
<path d="M6520 4406 c0 -2 8 -10 18 -17 15 -13 16 -12 3 4 -13 16 -21 21 -21
13z"/>
<path d="M5994 4396 c-13 -33 0 -51 40 -54 56 -5 86 5 86 28 0 11 -9 24 -19
30 -30 15 -101 13 -107 -4z"/>
<path d="M6000 4275 c0 -5 -3 -20 -6 -32 -6 -22 -4 -23 64 -23 55 0 71 3 76
16 4 9 2 22 -4 29 -13 16 -130 25 -130 10z"/>
<path d="M4530 4385 c-24 -25 -42 -45 -39 -45 3 0 25 20 49 45 24 25 42 45 39
45 -3 0 -25 -20 -49 -45z"/>
<path d="M4434 4238 l-19 -23 23 19 c12 11 22 21 22 23 0 8 -8 2 -26 -19z"/>
<path d="M3052 4368 c3 -7 24 -16 49 -19 l44 -6 -47 -1 -48 -2 0 -36 0 -36 88
5 c48 3 88 6 90 6 11 4 -2 62 -18 79 -18 19 -32 22 -91 22 -52 0 -70 -3 -67
-12z"/>
<path d="M5414 3757 c-2 -7 -3 -62 -2 -123 l3 -109 47 -3 c88 -6 144 36 155
117 12 86 -35 131 -136 131 -42 0 -63 -4 -67 -13z"/>
<path d="M4937 3645 c-24 -50 -22 -55 18 -55 20 0 35 5 35 12 0 18 -23 78 -30
78 -4 0 -14 -16 -23 -35z"/>
<path d="M4452 3700 c0 -19 2 -27 5 -17 2 9 2 25 0 35 -3 9 -5 1 -5 -18z"/>
<path d="M6370 3035 l0 -45 43 0 c48 0 67 13 67 47 0 27 -27 43 -74 43 -36 0
-36 0 -36 -45z"/>
<path d="M5930 3000 l0 -50 41 0 c45 0 68 19 69 56 0 31 -20 44 -67 44 l-43 0
0 -50z"/>
<path d="M6035 2970 c-3 -5 -2 -10 4 -10 5 0 13 5 16 10 3 6 2 10 -4 10 -5 0
-13 -4 -16 -10z"/>
<path d="M4840 9665 c-25 -13 -40 -24 -35 -24 6 0 30 11 55 24 25 13 41 24 35
24 -5 0 -30 -11 -55 -24z"/>
<path d="M4725 9610 c-3 -6 1 -7 9 -4 18 7 21 14 7 14 -6 0 -13 -4 -16 -10z"/>
<path d="M4645 9570 c-3 -6 1 -7 9 -4 18 7 21 14 7 14 -6 0 -13 -4 -16 -10z"/>
<path d="M4590 9540 c-9 -6 -10 -10 -3 -10 6 0 15 5 18 10 8 12 4 12 -15 0z"/>
<path d="M4021 9185 c-51 -35 -98 -69 -105 -75 -6 -7 37 20 97 59 59 39 107
74 107 76 0 7 2 9 -99 -60z"/>
<path d="M3795 9027 c-528 -381 -1049 -856 -1244 -1135 -55 -80 -116 -200
-144 -287 -21 -64 -52 -236 -71 -395 -14 -116 -20 -218 -46 -810 -18 -423 -33
-1865 -21 -2029 19 -241 59 -358 189 -552 85 -126 314 -368 442 -467 47 -36
135 -105 195 -152 125 -99 184 -141 380 -273 193 -130 231 -154 385 -244 128
-75 172 -100 365 -203 136 -73 332 -170 345 -170 7 0 24 -7 38 -15 50 -27 177
-78 537 -215 28 -11 127 -47 220 -81 323 -116 378 -127 491 -90 71 23 235 89
249 100 5 5 21 12 34 16 13 4 67 27 120 52 385 179 819 424 1129 637 73 50
195 133 270 185 201 138 407 303 562 451 74 71 74 71 11 18 -130 -108 -134
-109 -26 -4 61 59 102 105 91 102 -10 -4 -26 -1 -34 6 -13 11 -14 11 -7 -1 6
-11 4 -13 -8 -8 -9 3 -17 2 -19 -3 -2 -6 -17 -6 -38 0 -42 12 -81 67 -54 77 8
3 20 15 26 27 7 12 -14 0 -48 -30 -371 -317 -955 -702 -1519 -1002 -291 -155
-801 -392 -842 -392 -44 0 -417 135 -663 240 -327 139 -828 398 -1100 568
-373 233 -652 439 -935 691 -304 271 -418 415 -486 616 l-24 70 1 595 c1 327
-1 570 -3 540 -4 -54 -23 -97 -23 -52 0 15 -5 20 -15 16 -10 -4 -15 0 -15 10
0 13 -4 15 -19 6 -25 -13 -32 -13 -28 2 1 7 -5 12 -13 13 -8 0 -17 10 -20 22
-3 16 -9 20 -19 14 -8 -5 -11 -16 -8 -25 3 -8 2 -18 -3 -21 -12 -8 -12 368 0
1290 10 729 12 753 61 905 30 90 89 202 152 285 211 281 727 748 1220 1104 75
54 96 72 85 71 -2 -1 -48 -33 -103 -73z"/>
<path d="M7670 8777 c0 -2 15 -16 33 -33 l32 -29 -29 33 c-28 30 -36 37 -36
29z"/>
<path d="M7755 8700 c10 -11 20 -20 23 -20 3 0 -3 9 -13 20 -10 11 -20 20 -23
20 -3 0 3 -9 13 -20z"/>
<path d="M7830 8635 c19 -19 36 -35 39 -35 3 0 -10 16 -29 35 -19 19 -36 35
-39 35 -3 0 10 -16 29 -35z"/>
<path d="M7915 8560 c21 -22 41 -40 44 -40 3 0 -13 18 -34 40 -21 22 -41 40
-44 40 -3 0 13 -18 34 -40z"/>
<path d="M8191 8295 c266 -272 411 -440 538 -624 28 -41 51 -71 51 -66 0 4
-25 44 -55 89 -101 151 -318 397 -552 626 l-158 155 176 -180z"/>
<path d="M8796 7557 c3 -10 9 -15 12 -12 3 3 0 11 -7 18 -10 9 -11 8 -5 -6z"/>
</g>
</svg>
